{
	"asset":{
		"generator":"Khronos glTF Blender I/O v4.0.44",
		"version":"2.0"
	},
	"extensionsUsed":[
		"KHR_materials_specular"
	],
	"scene":0,
	"scenes":[
		{
			"name":"Scene",
			"nodes":[
				5
			]
		}
	],
	"nodes":[
		{
			"mesh":0,
			"name":"Phoenix_LOD0__0"
		},
		{
			"children":[
				0
			],
			"name":"Object_4",
			"translation":[
				0,
				0,
				-22.360679626464844
			]
		},
		{
			"children":[
				1
			],
			"name":"Phoenix_LOD0",
			"scale":[
				999.9999389648438,
				999.9999389648438,
				999.9999389648438
			]
		},
		{
			"children":[
				2
			],
			"name":"RootNode"
		},
		{
			"children":[
				3
			],
			"name":"2d94b2faa8364f3987e0e654dad2ddb3.fbx",
			"rotation":[
				-1,
				0,
				0,
				1.7347233700976887e-15
			],
			"scale":[
				0.0010000000474974513,
				0.0010000000474974513,
				0.0010000000474974513
			]
		},
		{
			"children":[
				4
			],
			"name":"Sketchfab_model",
			"rotation":[
				-0.7071067690849304,
				0,
				0,
				0.7071068286895752
			],
			"scale":[
				0.07761383056640625,
				0.07761383056640625,
				0.07761383056640625
			]
		}
	],
	"materials":[
		{
			"doubleSided":true,
			"extensions":{
				"KHR_materials_specular":{
					"specularTexture":{
						"index":0
					}
				}
			},
			"name":"Scene_-_Root",
			"normalTexture":{
				"index":1
			},
			"occlusionTexture":{
				"index":2
			},
			"pbrMetallicRoughness":{
				"baseColorTexture":{
					"index":3
				},
				"metallicRoughnessTexture":{
					"index":2
				},
				"roughnessFactor":0.8581773638725281
			}
		}
	],
	"meshes":[
		{
			"name":"Phoenix_LOD0__0",
			"primitives":[
				{
					"attributes":{
						"POSITION":0,
						"NORMAL":1,
						"TEXCOORD_0":2
					},
					"indices":3,
					"material":0
				}
			]
		}
	],
	"textures":[
		{
			"sampler":0,
			"source":0
		},
		{
			"sampler":0,
			"source":1
		},
		{
			"sampler":0,
			"source":2
		},
		{
			"sampler":0,
			"source":3
		}
	],
	"images":[
		{
			"mimeType":"image/png",
			"name":"Image_3",
			"uri":"textures/Image_3.png"
		},
		{
			"mimeType":"image/png",
			"name":"Image_2",
			"uri":"textures/Image_2.png"
		},
		{
			"mimeType":"image/png",
			"name":"Image_1",
			"uri":"textures/Image_1.png"
		},
		{
			"mimeType":"image/png",
			"name":"Image_0",
			"uri":"textures/Image_0.png"
		}
	],
	"accessors":[
		{
			"bufferView":0,
			"componentType":5126,
			"count":3625,
			"max":[
				21.964902877807617,
				21.964975357055664,
				44.325584411621094
			],
			"min":[
				-21.964902877807617,
				-21.964975357055664,
				0.395782470703125
			],
			"type":"VEC3"
		},
		{
			"bufferView":1,
			"componentType":5126,
			"count":3625,
			"type":"VEC3"
		},
		{
			"bufferView":2,
			"componentType":5126,
			"count":3625,
			"type":"VEC2"
		},
		{
			"bufferView":3,
			"componentType":5123,
			"count":20736,
			"type":"SCALAR"
		}
	],
	"bufferViews":[
		{
			"buffer":0,
			"byteLength":43500,
			"byteOffset":0,
			"target":34962
		},
		{
			"buffer":0,
			"byteLength":43500,
			"byteOffset":43500,
			"target":34962
		},
		{
			"buffer":0,
			"byteLength":29000,
			"byteOffset":87000,
			"target":34962
		},
		{
			"buffer":0,
			"byteLength":41472,
			"byteOffset":116000,
			"target":34963
		}
	],
	"samplers":[
		{
			"magFilter":9729,
			"minFilter":9987
		}
	],
	"buffers":[
		{
			"byteLength":157472,
			"uri":"planet.bin"
		}
	]
}
